<svg height="512" width="512" xmlns="http://www.w3.org/2000/svg"><path d="m453.546814 273.4485474h-81.4267578l.000061-40.7133179h81.4266968zm0 23.2647705h-81.4266968l-.000061 40.7133789h81.4267578zm0-191.9343872h-81.4266968l-.000061 40.7133789h81.4267578zm0 63.9781494h-81.4266968l-.000061 40.7133789h81.4267578zm0 191.9343872h-81.4266968l-.000061 40.7133789h81.4267578zm56.2426757 80.2634888c-2.3264771 12.0977173-16.8670044 12.3884888-26.5800171 12.7956543h-180.883606v52.3457031h-36.1185913l-266.2072753-46.529541v-407.0754395l267.7775879-46.5877075h34.5482178v46.3553734l174.6602783-.0003319c9.8294067.4071655 20.647522-.2907715 29.1973267 5.5835571 5.9906616 8.6079712 5.4094238 19.5424195 5.8165893 29.4299927l-.2330322 302.7910767c-.2908325 16.9251098 1.5703735 34.1992187-1.9774781 50.8916626zm-296.5096435-91.2561036c-16.0526733-32.5706787-32.3961792-64.9087524-48.3907471-97.4794312 15.8200684-31.6982422 31.4074707-63.5128174 46.9367065-95.3273926-13.2027588.6397705-26.4055176 1.4540405-39.5501099 2.3846436-9.8293457 23.9046021-21.2872925 47.1693726-28.9646606 71.8881836-7.1539307-23.322937-16.6343384-45.7734375-25.300415-68.5147705-12.7956543.697937-25.5912476 1.4540405-38.3869019 2.210144 13.4935913 29.7789307 27.8595581 59.1506958 40.9459839 89.104126-15.4129028 29.0809326-29.8370361 58.5690308-44.784668 87.8245239 12.7374268.5234375 25.4749146 1.046875 38.2124023 1.2213745 9.0732422-23.1484375 20.3566895-45.4244995 28.2666626-69.038208 7.0957642 25.3585815 19.1353149 48.7978516 29.0228271 73.0513916 14.017029.9887696 27.9758913 1.8612062 41.9929201 2.6754151zm270.9803467-269.8170776h-181.9343872l-.000061 24.8971558h46.529541v40.7133789h-46.529541v23.2647705h46.529541v40.7133789h-46.529541v23.2647705h46.529541v40.7133179h-46.529541v23.2647705h46.529541v40.7133789h-46.529541v23.2647705h46.529541v40.7133789h-46.529541v26.8971558h181.9344482z"/></svg>